<?xml version="1.0" standalone="no"?>
<!DOCTYPE svg PUBLIC "-//W3C//DTD SVG 20010904//EN"
 "http://www.w3.org/TR/2001/REC-SVG-20010904/DTD/svg10.dtd">
<svg version="1.0" xmlns="http://www.w3.org/2000/svg"
 width="256.000000pt" height="256.000000pt" viewBox="0 0 256.000000 256.000000"
 preserveAspectRatio="xMidYMid meet">
<metadata>
Created by potrace 1.11, written by Peter Selinger 2001-2013
</metadata>
<g transform="translate(0.000000,256.000000) scale(0.100000,-0.100000)"
fill="#000000" stroke="none">
<path d="M1140 2554 c-560 -72 -997 -472 -1116 -1024 -26 -119 -26 -381 0
-500 111 -514 492 -895 1006 -1006 119 -26 381 -26 500 0 514 111 895 492
1006 1006 26 119 26 381 0 500 -109 505 -485 887 -986 1001 -83 19 -331 33
-410 23z m404 -732 c87 -41 158 -109 198 -190 27 -54 33 -79 36 -152 l4 -87
53 -6 c252 -26 372 -314 209 -496 -26 -29 -70 -64 -98 -79 l-51 -27 -615 0
-615 0 -51 27 c-114 60 -182 178 -171 298 10 110 93 220 195 256 48 17 50 20
56 61 11 80 58 147 131 186 30 16 58 21 112 22 l72 0 40 56 c111 155 324 211
495 131z"/>
</g>
</svg>
